<mxfile host="app.diagrams.net" modified="2024-03-28T16:09:52.272Z" agent="Mozilla/5.0 (Windows NT 10.0; Win64; x64) AppleWebKit/537.36 (KHTML, like Gecko) Chrome/122.0.0.0 Safari/537.36 Edg/122.0.0.0" etag="8OqXKsLNykN69OGyF-_G" version="24.2.0" type="device">
  <diagram name="Pagina-1" id="I6fKPGo0wwUsKdZTYBIh">
    <mxGraphModel dx="1209" dy="706" grid="0" gridSize="10" guides="1" tooltips="1" connect="1" arrows="1" fold="1" page="1" pageScale="1" pageWidth="827" pageHeight="1169" math="0" shadow="1">
      <root>
        <mxCell id="0" />
        <mxCell id="1" parent="0" />
        <mxCell id="q9eNMD0s94vLyQns84ka-1" value="&lt;font face=&quot;Times New Roman&quot; style=&quot;font-size: 14px;&quot;&gt;INIT&lt;/font&gt;" style="ellipse;whiteSpace=wrap;html=1;aspect=fixed;" vertex="1" parent="1">
          <mxGeometry x="230" y="330" width="80" height="80" as="geometry" />
        </mxCell>
        <mxCell id="q9eNMD0s94vLyQns84ka-2" value="" style="endArrow=classic;html=1;rounded=0;entryX=0.5;entryY=0;entryDx=0;entryDy=0;" edge="1" parent="1" target="q9eNMD0s94vLyQns84ka-1">
          <mxGeometry width="50" height="50" relative="1" as="geometry">
            <mxPoint x="270" y="250" as="sourcePoint" />
            <mxPoint x="300" y="350" as="targetPoint" />
          </mxGeometry>
        </mxCell>
        <mxCell id="q9eNMD0s94vLyQns84ka-3" value="&lt;font face=&quot;Times New Roman&quot; style=&quot;font-size: 14px;&quot;&gt;INIT&lt;/font&gt;&lt;div&gt;&lt;font face=&quot;Times New Roman&quot; style=&quot;font-size: 14px;&quot;&gt;INPUT&lt;/font&gt;&lt;/div&gt;" style="ellipse;whiteSpace=wrap;html=1;aspect=fixed;" vertex="1" parent="1">
          <mxGeometry x="230" y="490" width="80" height="80" as="geometry" />
        </mxCell>
        <mxCell id="q9eNMD0s94vLyQns84ka-4" value="" style="endArrow=classic;html=1;rounded=0;entryX=0.5;entryY=0;entryDx=0;entryDy=0;" edge="1" parent="1" target="q9eNMD0s94vLyQns84ka-3">
          <mxGeometry width="50" height="50" relative="1" as="geometry">
            <mxPoint x="270" y="410" as="sourcePoint" />
            <mxPoint x="300" y="510" as="targetPoint" />
          </mxGeometry>
        </mxCell>
        <mxCell id="q9eNMD0s94vLyQns84ka-5" value="&lt;font face=&quot;Times New Roman&quot; style=&quot;font-size: 14px;&quot;&gt;READ&lt;/font&gt;" style="ellipse;whiteSpace=wrap;html=1;aspect=fixed;" vertex="1" parent="1">
          <mxGeometry x="230" y="650" width="80" height="80" as="geometry" />
        </mxCell>
        <mxCell id="q9eNMD0s94vLyQns84ka-6" value="" style="endArrow=classic;html=1;rounded=0;entryX=0.5;entryY=0;entryDx=0;entryDy=0;" edge="1" parent="1" target="q9eNMD0s94vLyQns84ka-5">
          <mxGeometry width="50" height="50" relative="1" as="geometry">
            <mxPoint x="270" y="570" as="sourcePoint" />
            <mxPoint x="300" y="670" as="targetPoint" />
          </mxGeometry>
        </mxCell>
        <mxCell id="q9eNMD0s94vLyQns84ka-7" value="&lt;font face=&quot;Times New Roman&quot;&gt;&lt;span style=&quot;font-size: 14px;&quot;&gt;WAIT&lt;/span&gt;&lt;/font&gt;&lt;div&gt;&lt;font face=&quot;Times New Roman&quot;&gt;&lt;span style=&quot;font-size: 14px;&quot;&gt;READ&lt;/span&gt;&lt;/font&gt;&lt;/div&gt;" style="ellipse;whiteSpace=wrap;html=1;aspect=fixed;" vertex="1" parent="1">
          <mxGeometry x="230" y="810" width="80" height="80" as="geometry" />
        </mxCell>
        <mxCell id="q9eNMD0s94vLyQns84ka-8" value="" style="endArrow=classic;html=1;rounded=0;entryX=0.5;entryY=0;entryDx=0;entryDy=0;" edge="1" parent="1" target="q9eNMD0s94vLyQns84ka-7">
          <mxGeometry width="50" height="50" relative="1" as="geometry">
            <mxPoint x="270" y="730" as="sourcePoint" />
            <mxPoint x="300" y="830" as="targetPoint" />
          </mxGeometry>
        </mxCell>
        <mxCell id="q9eNMD0s94vLyQns84ka-9" value="&lt;font face=&quot;Times New Roman&quot; style=&quot;font-size: 14px;&quot;&gt;WAIT&lt;/font&gt;&lt;div&gt;&lt;font face=&quot;Times New Roman&quot; style=&quot;font-size: 14px;&quot;&gt;READ 2&lt;/font&gt;&lt;/div&gt;" style="ellipse;whiteSpace=wrap;html=1;aspect=fixed;" vertex="1" parent="1">
          <mxGeometry x="390" y="810" width="80" height="80" as="geometry" />
        </mxCell>
        <mxCell id="q9eNMD0s94vLyQns84ka-10" value="" style="endArrow=classic;html=1;rounded=0;entryX=0;entryY=0.5;entryDx=0;entryDy=0;exitX=1;exitY=0.5;exitDx=0;exitDy=0;" edge="1" parent="1" target="q9eNMD0s94vLyQns84ka-9" source="q9eNMD0s94vLyQns84ka-7">
          <mxGeometry width="50" height="50" relative="1" as="geometry">
            <mxPoint x="270" y="890" as="sourcePoint" />
            <mxPoint x="300" y="990" as="targetPoint" />
          </mxGeometry>
        </mxCell>
        <mxCell id="q9eNMD0s94vLyQns84ka-13" value="" style="endArrow=classic;html=1;rounded=0;exitX=0;exitY=0.5;exitDx=0;exitDy=0;entryX=1;entryY=0.5;entryDx=0;entryDy=0;" edge="1" parent="1" source="q9eNMD0s94vLyQns84ka-3">
          <mxGeometry width="50" height="50" relative="1" as="geometry">
            <mxPoint x="220" y="470" as="sourcePoint" />
            <mxPoint x="150" y="530" as="targetPoint" />
          </mxGeometry>
        </mxCell>
        <mxCell id="q9eNMD0s94vLyQns84ka-14" value="&lt;font face=&quot;Times New Roman&quot; style=&quot;font-size: 14px;&quot;&gt;DONE&lt;/font&gt;" style="ellipse;shape=doubleEllipse;whiteSpace=wrap;html=1;aspect=fixed;" vertex="1" parent="1">
          <mxGeometry x="70" y="490" width="80" height="80" as="geometry" />
        </mxCell>
        <mxCell id="q9eNMD0s94vLyQns84ka-15" value="&lt;font face=&quot;Times New Roman&quot; style=&quot;font-size: 14px;&quot;&gt;CHOICE&lt;/font&gt;" style="ellipse;whiteSpace=wrap;html=1;aspect=fixed;" vertex="1" parent="1">
          <mxGeometry x="390" y="490" width="80" height="80" as="geometry" />
        </mxCell>
        <mxCell id="q9eNMD0s94vLyQns84ka-20" value="" style="endArrow=classic;html=1;rounded=0;entryX=0.5;entryY=1;entryDx=0;entryDy=0;exitX=0.5;exitY=0;exitDx=0;exitDy=0;" edge="1" parent="1" source="q9eNMD0s94vLyQns84ka-9" target="q9eNMD0s94vLyQns84ka-15">
          <mxGeometry width="50" height="50" relative="1" as="geometry">
            <mxPoint x="330" y="700" as="sourcePoint" />
            <mxPoint x="380" y="650" as="targetPoint" />
          </mxGeometry>
        </mxCell>
        <mxCell id="q9eNMD0s94vLyQns84ka-21" value="" style="endArrow=classic;html=1;rounded=0;entryX=1;entryY=0.5;entryDx=0;entryDy=0;exitX=0;exitY=0.5;exitDx=0;exitDy=0;" edge="1" parent="1" source="q9eNMD0s94vLyQns84ka-15" target="q9eNMD0s94vLyQns84ka-3">
          <mxGeometry width="50" height="50" relative="1" as="geometry">
            <mxPoint x="280" y="510" as="sourcePoint" />
            <mxPoint x="330" y="460" as="targetPoint" />
          </mxGeometry>
        </mxCell>
        <mxCell id="q9eNMD0s94vLyQns84ka-22" value="&lt;font face=&quot;Times New Roman&quot; style=&quot;font-size: 14px;&quot;&gt;WAIT P&lt;/font&gt;" style="ellipse;whiteSpace=wrap;html=1;aspect=fixed;" vertex="1" parent="1">
          <mxGeometry x="550" y="330" width="80" height="80" as="geometry" />
        </mxCell>
        <mxCell id="q9eNMD0s94vLyQns84ka-23" value="" style="endArrow=classic;html=1;rounded=0;entryX=0;entryY=0.5;entryDx=0;entryDy=0;exitX=0.5;exitY=0;exitDx=0;exitDy=0;" edge="1" parent="1" target="q9eNMD0s94vLyQns84ka-22" source="q9eNMD0s94vLyQns84ka-15">
          <mxGeometry width="50" height="50" relative="1" as="geometry">
            <mxPoint x="590" y="250" as="sourcePoint" />
            <mxPoint x="620" y="350" as="targetPoint" />
            <Array as="points">
              <mxPoint x="430" y="410" />
              <mxPoint x="470" y="370" />
            </Array>
          </mxGeometry>
        </mxCell>
        <mxCell id="q9eNMD0s94vLyQns84ka-24" value="&lt;font face=&quot;Times New Roman&quot; style=&quot;font-size: 14px;&quot;&gt;WRITE P&lt;/font&gt;" style="ellipse;whiteSpace=wrap;html=1;aspect=fixed;" vertex="1" parent="1">
          <mxGeometry x="550" y="490" width="80" height="80" as="geometry" />
        </mxCell>
        <mxCell id="q9eNMD0s94vLyQns84ka-25" value="" style="endArrow=classic;html=1;rounded=0;entryX=0.5;entryY=0;entryDx=0;entryDy=0;" edge="1" parent="1" target="q9eNMD0s94vLyQns84ka-24">
          <mxGeometry width="50" height="50" relative="1" as="geometry">
            <mxPoint x="590" y="410" as="sourcePoint" />
            <mxPoint x="620" y="510" as="targetPoint" />
          </mxGeometry>
        </mxCell>
        <mxCell id="q9eNMD0s94vLyQns84ka-26" value="&lt;font face=&quot;Times New Roman&quot; style=&quot;font-size: 14px;&quot;&gt;WAIT EN&lt;/font&gt;" style="ellipse;whiteSpace=wrap;html=1;aspect=fixed;" vertex="1" parent="1">
          <mxGeometry x="550" y="650" width="80" height="80" as="geometry" />
        </mxCell>
        <mxCell id="q9eNMD0s94vLyQns84ka-27" value="" style="endArrow=classic;html=1;rounded=0;entryX=0.5;entryY=0;entryDx=0;entryDy=0;" edge="1" parent="1" target="q9eNMD0s94vLyQns84ka-26">
          <mxGeometry width="50" height="50" relative="1" as="geometry">
            <mxPoint x="590" y="570" as="sourcePoint" />
            <mxPoint x="620" y="670" as="targetPoint" />
          </mxGeometry>
        </mxCell>
        <mxCell id="q9eNMD0s94vLyQns84ka-28" value="&lt;font face=&quot;Times New Roman&quot; style=&quot;font-size: 14px;&quot;&gt;WRITE C&lt;/font&gt;" style="ellipse;whiteSpace=wrap;html=1;aspect=fixed;" vertex="1" parent="1">
          <mxGeometry x="550" y="810" width="80" height="80" as="geometry" />
        </mxCell>
        <mxCell id="q9eNMD0s94vLyQns84ka-29" value="" style="endArrow=classic;html=1;rounded=0;entryX=0.5;entryY=0;entryDx=0;entryDy=0;" edge="1" parent="1" target="q9eNMD0s94vLyQns84ka-28">
          <mxGeometry width="50" height="50" relative="1" as="geometry">
            <mxPoint x="590" y="730" as="sourcePoint" />
            <mxPoint x="620" y="830" as="targetPoint" />
          </mxGeometry>
        </mxCell>
        <mxCell id="q9eNMD0s94vLyQns84ka-30" value="" style="endArrow=classic;html=1;rounded=0;entryX=0;entryY=0.5;entryDx=0;entryDy=0;exitX=1;exitY=0.5;exitDx=0;exitDy=0;" edge="1" parent="1" source="q9eNMD0s94vLyQns84ka-15" target="q9eNMD0s94vLyQns84ka-26">
          <mxGeometry width="50" height="50" relative="1" as="geometry">
            <mxPoint x="280" y="590" as="sourcePoint" />
            <mxPoint x="330" y="540" as="targetPoint" />
            <Array as="points">
              <mxPoint x="490" y="530" />
              <mxPoint x="510" y="550" />
              <mxPoint x="510" y="670" />
              <mxPoint x="530" y="690" />
            </Array>
          </mxGeometry>
        </mxCell>
        <mxCell id="q9eNMD0s94vLyQns84ka-31" value="" style="endArrow=classic;html=1;rounded=0;exitX=0.5;exitY=1;exitDx=0;exitDy=0;entryX=0;entryY=1;entryDx=0;entryDy=0;" edge="1" parent="1" source="q9eNMD0s94vLyQns84ka-28" target="q9eNMD0s94vLyQns84ka-3">
          <mxGeometry width="50" height="50" relative="1" as="geometry">
            <mxPoint x="360" y="900" as="sourcePoint" />
            <mxPoint x="190" y="590" as="targetPoint" />
            <Array as="points">
              <mxPoint x="590" y="910" />
              <mxPoint x="570" y="930" />
              <mxPoint x="230" y="930" />
              <mxPoint x="190" y="890" />
              <mxPoint x="190" y="610" />
            </Array>
          </mxGeometry>
        </mxCell>
      </root>
    </mxGraphModel>
  </diagram>
</mxfile>
